<?xml version="1.0" encoding="UTF-8" standalone="no"?>
<!-- Created with Inkscape (http://www.inkscape.org/) -->
<svg xmlns:svg="http://www.w3.org/2000/svg" xmlns="http://www.w3.org/2000/svg" xmlns:xlink="http://www.w3.org/1999/xlink" version="1.0" width="289.26822" height="171.10893" id="svg2459">
  <defs id="defs2461">
    <radialGradient cx="215.10258" cy="451.40878" r="9.9286404" fx="215.10258" fy="451.40878" id="radialGradient6067" xlink:href="#linearGradient4878" gradientUnits="userSpaceOnUse" gradientTransform="matrix(0.6989395,0,1.254451e-2,0.8254226,22.716535,64.031232)"/>
    <radialGradient cx="254.55843" cy="462.54919" r="9.9286404" fx="254.55843" fy="462.54919" id="radialGradient6065" xlink:href="#linearGradient4878" gradientUnits="userSpaceOnUse" gradientTransform="matrix(0.6989395,0,1.254451e-2,0.8254226,-2.5635126,56.652564)"/>
    <radialGradient cx="248.92307" cy="466.34213" r="9.9286404" fx="248.92307" fy="466.34213" id="radialGradient6063" xlink:href="#linearGradient4878" gradientUnits="userSpaceOnUse" gradientTransform="matrix(1.1981071,9.1506237e-2,-6.1948953e-2,0.8225811,-83.446276,33.229553)"/>
    <radialGradient cx="327.99704" cy="476.26868" r="9.9286404" fx="327.99704" fy="476.26868" id="radialGradient6061" xlink:href="#linearGradient4878" gradientUnits="userSpaceOnUse" gradientTransform="matrix(0.6989395,0,1.254451e-2,0.8254226,-53.054512,43.199608)"/>
    <linearGradient id="linearGradient4878">
      <stop id="stop4880" style="stop-color:#000000;stop-opacity:1" offset="0"/>
      <stop id="stop4882" style="stop-color:#ffffff;stop-opacity:1" offset="1"/>
    </linearGradient>
    <radialGradient cx="178.89801" cy="439.30124" r="9.9286404" fx="178.89801" fy="439.30124" id="radialGradient6059" xlink:href="#linearGradient4878" gradientUnits="userSpaceOnUse" gradientTransform="matrix(0.6989395,0,1.254451e-2,0.8254226,47.024275,70.487566)"/>
    <linearGradient x1="396.04901" y1="491.46689" x2="233.99924" y2="438.59351" id="linearGradient6057" xlink:href="#linearGradient4111" gradientUnits="userSpaceOnUse" gradientTransform="matrix(1.0165997,0,1.4200815e-2,0.985037,-7.5983657,2.7167097)" spreadMethod="reflect"/>
    <linearGradient id="linearGradient4111">
      <stop id="stop4113" style="stop-color:#000338;stop-opacity:1" offset="0"/>
      <stop id="stop4115" style="stop-color:#fdfdfd;stop-opacity:1" offset="1"/>
    </linearGradient>
    <linearGradient x1="396.04901" y1="491.46689" x2="233.99924" y2="438.59351" id="linearGradient6055" xlink:href="#linearGradient4111" gradientUnits="userSpaceOnUse" gradientTransform="matrix(1.0165997,0,1.4200815e-2,0.985037,-7.5983657,2.7167097)" spreadMethod="reflect"/>
  </defs>
  <g transform="translate(-175.15799,-526.1073)" id="layer1">
    <g id="g3429">
      <g transform="matrix(0.336494,-4.6801772e-3,4.7764508e-2,0.2383341,140.44957,562.78631)" id="g5946" style="fill:#bdbdbd;fill-opacity:1;stroke:none;display:inline">
        <path d="M 336,397.36218 C 183,187.36218 183,187.36218 183,187.36218" id="path5948" style="fill:#bdbdbd;fill-opacity:1;fill-rule:evenodd;stroke:none;stroke-width:11.60000038;stroke-linecap:round;stroke-linejoin:miter;stroke-miterlimit:4;stroke-dasharray:none;stroke-opacity:1"/>
        <path d="M 736,326.36218 C 598,435.36217 598,437.36217 598,437.36217" id="path5950" style="fill:#bdbdbd;fill-opacity:1;fill-rule:evenodd;stroke:none;stroke-width:14.60000038;stroke-linecap:round;stroke-linejoin:miter;stroke-miterlimit:4;stroke-dasharray:none;stroke-opacity:1"/>
        <path d="M 653.45856,424.87893 C 649.5299,402.62009 567.5495,434.17568 477.41709,421.51187 C 382.94252,408.238 366.76463,393.98073 330.30895,382.69718 C 304.0883,374.5815 206.23601,384.25966 207.32131,388.60858 C 211.75923,406.39175 582.74966,557.12626 588.68433,552.52242 C 588.82159,557.22128 620.79207,534.82268 627.34371,530.8151 C 636.90703,524.7282 637.16298,525.65834 644.00513,506.58992 C 650.85326,487.50487 657.49965,447.77478 653.45856,424.87893 z" id="path5952" style="fill:#bdbdbd;fill-opacity:1;fill-rule:evenodd;stroke:none;stroke-width:5.19999981;stroke-linecap:round;stroke-linejoin:round;stroke-miterlimit:4;stroke-dasharray:none;stroke-opacity:1;display:inline"/>
        <path d="M 624.32426,434.92561 C 620.27266,411.12823 535.72679,444.86496 442.77381,431.32582 C 345.34278,417.13445 328.65863,401.89171 291.06211,389.82823 C 264.02092,381.15159 163.10647,391.49871 164.22574,396.14823 C 168.80254,415.16058 551.40262,576.31395 557.52301,571.39189 C 557.66456,576.41554 590.63552,552.46873 597.39218,548.18415 C 607.25478,541.67652 607.51873,542.67095 614.575,522.28451 C 621.63743,501.88029 628.49181,459.40403 624.32426,434.92561 z" id="path5954" style="fill:#bdbdbd;fill-opacity:1;fill-rule:evenodd;stroke:none;stroke-width:5.19999981;stroke-linecap:round;stroke-linejoin:round;stroke-miterlimit:4;stroke-dasharray:none;stroke-opacity:1;display:inline"/>
        <path d="M 581.69732,456.6894 C 570.62981,431.01199 486.09313,457.39348 371.00619,442.63322 C 257.90978,428.0426 260.63451,402.1136 170.89038,396.50207 C 148.92914,395.12888 140.0512,398.64435 136.86288,426.77986 C 132.93881,461.40817 134.31055,477.36823 135.242,487.17094 C 137.16853,507.44598 162.33487,519.13703 236.91162,522.34083 C 312.48363,525.62945 464.69107,560.26778 537.41308,572.85695 C 561.73725,575.81895 580.42626,559.3468 583.92807,537.55066 C 587.43291,515.73558 593.08159,483.10169 581.69732,456.6894 z" id="path5956" style="fill:#bdbdbd;fill-opacity:1;fill-rule:evenodd;stroke:none;stroke-width:6.70000029;stroke-linecap:round;stroke-linejoin:round;stroke-miterlimit:4;stroke-dasharray:none;stroke-opacity:1"/>
        <path d="M 180.08302,428.81781 C 184.22016,429.68746 187.11059,434.86596 186.62329,440.53533 C 186.13599,446.2047 182.44574,450.3314 178.27326,449.87293 C 174.10079,449.41445 170.94271,444.53525 171.1274,438.83262 C 171.31209,433.13 174.7733,428.64943 178.95917,428.69432" transform="matrix(1.454489,0,0,1.5332998,-77.771646,-228.62243)" id="path5958" style="opacity:1;fill:#bdbdbd;fill-opacity:1;fill-rule:evenodd;stroke:none;stroke-width:2.8787148;stroke-linecap:round;stroke-linejoin:round;stroke-miterlimit:4;stroke-dasharray:none;stroke-dashoffset:0;stroke-opacity:0.81402438"/>
        <path d="M 180.08302,428.81781 C 184.22016,429.68746 187.11059,434.86596 186.62329,440.53533 C 186.13599,446.2047 182.44574,450.3314 178.27326,449.87293 C 174.10079,449.41445 170.94271,444.53525 171.1274,438.83262 C 171.31209,433.13 174.7733,428.64943 178.95917,428.69432" transform="matrix(1.454489,0,0,1.5332998,67.79185,-186.7818)" id="path5960" style="opacity:1;fill:#bdbdbd;fill-opacity:1;fill-rule:evenodd;stroke:none;stroke-width:2.8787148;stroke-linecap:round;stroke-linejoin:round;stroke-miterlimit:4;stroke-dasharray:none;stroke-dashoffset:0;stroke-opacity:0.81402438"/>
        <path d="M 180.08302,428.81781 C 184.22016,429.68746 187.11059,434.86596 186.62329,440.53533 C 186.13599,446.2047 182.44574,450.3314 178.27326,449.87293 C 174.10079,449.41445 170.94271,444.53525 171.1274,438.83262 C 171.31209,433.13 174.7733,428.64943 178.95917,428.69432" transform="matrix(1.454489,0,0,1.5332998,29.708586,-194.6813)" id="path5962" style="opacity:1;fill:#bdbdbd;fill-opacity:1;fill-rule:evenodd;stroke:none;stroke-width:2.8787148;stroke-linecap:round;stroke-linejoin:round;stroke-miterlimit:4;stroke-dasharray:none;stroke-dashoffset:0;stroke-opacity:0.81402438"/>
        <path d="M 180.08302,428.81781 C 184.22016,429.68746 187.11059,434.86596 186.62329,440.53533 C 186.13599,446.2047 182.44574,450.3314 178.27326,449.87293 C 174.10079,449.41445 170.94271,444.53525 171.1274,438.83262 C 171.31209,433.13 174.7733,428.64943 178.95917,428.69432" transform="matrix(1.454489,0,0,1.5332998,-5.6467539,-207.40922)" id="path5964" style="opacity:1;fill:#bdbdbd;fill-opacity:1;fill-rule:evenodd;stroke:none;stroke-width:2.8787148;stroke-linecap:round;stroke-linejoin:round;stroke-miterlimit:4;stroke-dasharray:none;stroke-dashoffset:0;stroke-opacity:0.81402438"/>
        <path d="M 180.08302,428.81781 C 184.22016,429.68746 187.11059,434.86596 186.62329,440.53533 C 186.13599,446.2047 182.44574,450.3314 178.27326,449.87293 C 174.10079,449.41445 170.94271,444.53525 171.1274,438.83262 C 171.31209,433.13 174.7733,428.64943 178.95917,428.69432" transform="matrix(1.454489,0,0,1.5332998,-42.416306,-218.72293)" id="path5966" style="opacity:1;fill:#bdbdbd;fill-opacity:1;fill-rule:evenodd;stroke:none;stroke-width:2.8787148;stroke-linecap:round;stroke-linejoin:round;stroke-miterlimit:4;stroke-dasharray:none;stroke-dashoffset:0;stroke-opacity:0.81402438"/>
      </g>
      <g transform="matrix(0.3501825,0,-5.048416e-3,0.3614031,159.3262,488.86666)" id="g5891">
        <path d="M 336,397.36218 C 183,187.36218 183,187.36218 183,187.36218" id="path5881" style="fill:#000000;fill-opacity:1;fill-rule:evenodd;stroke:#000000;stroke-width:11.60805035;stroke-linecap:round;stroke-linejoin:miter;stroke-miterlimit:4;stroke-dasharray:none;stroke-opacity:1"/>
        <path d="M 736,326.36218 C 598,435.36217 598,437.36217 598,437.36217" id="path5883" style="fill:none;fill-rule:evenodd;stroke:#000000;stroke-width:14.61013222;stroke-linecap:round;stroke-linejoin:miter;stroke-miterlimit:4;stroke-dasharray:none;stroke-opacity:1"/>
        <path d="M 653.45856,424.87893 C 649.5299,402.62009 567.5495,434.17568 477.41709,421.51187 C 382.94252,408.238 366.76463,393.98073 330.30895,382.69718 C 304.0883,374.5815 206.23601,384.25966 207.32131,388.60858 C 211.75923,406.39175 582.74966,557.12626 588.68433,552.52242 C 588.82159,557.22128 620.79207,534.82268 627.34371,530.8151 C 636.90703,524.7282 637.16298,525.65834 644.00513,506.58992 C 650.85326,487.50487 657.49965,447.77478 653.45856,424.87893 z" id="path5887" style="fill:url(#linearGradient6055);fill-opacity:1;fill-rule:evenodd;stroke:#313131;stroke-width:5.20360851;stroke-linecap:round;stroke-linejoin:round;stroke-miterlimit:4;stroke-dasharray:none;stroke-opacity:1;display:inline"/>
        <path d="M 624.32426,434.92561 C 620.27266,411.12823 535.72679,444.86496 442.77381,431.32582 C 345.34278,417.13445 328.65863,401.89171 291.06211,389.82823 C 264.02092,381.15159 163.10647,391.49871 164.22574,396.14823 C 168.80254,415.16058 551.40262,576.31395 557.52301,571.39189 C 557.66456,576.41554 590.63552,552.46873 597.39218,548.18415 C 607.25478,541.67652 607.51873,542.67095 614.575,522.28451 C 621.63743,501.88029 628.49181,459.40403 624.32426,434.92561 z" id="path4278" style="fill:url(#linearGradient6057);fill-opacity:1;fill-rule:evenodd;stroke:#313131;stroke-width:5.20360851;stroke-linecap:round;stroke-linejoin:round;stroke-miterlimit:4;stroke-dasharray:none;stroke-opacity:1;display:inline"/>
        <path d="M 581.69732,456.6894 C 570.62981,431.01199 486.09313,457.39348 371.00619,442.63322 C 257.90978,428.0426 260.63451,402.1136 170.89038,396.50207 C 148.92914,395.12888 140.0512,398.64435 136.86288,426.77986 C 132.93881,461.40817 134.31055,477.36823 135.242,487.17094 C 137.16853,507.44598 162.33487,519.13703 236.91162,522.34083 C 312.48363,525.62945 464.69107,560.26778 537.41308,572.85695 C 561.73725,575.81895 580.42626,559.3468 583.92807,537.55066 C 587.43291,515.73558 593.08159,483.10169 581.69732,456.6894 z" id="path4191" style="fill:#f5f5f5;fill-opacity:1;fill-rule:evenodd;stroke:#000000;stroke-width:6.70464993;stroke-linecap:round;stroke-linejoin:round;stroke-miterlimit:4;stroke-dasharray:none;stroke-opacity:1"/>
        <path d="M 180.08302,428.81781 C 184.22016,429.68746 187.11059,434.86596 186.62329,440.53533 C 186.13599,446.2047 182.44574,450.3314 178.27326,449.87293 C 174.10079,449.41445 170.94271,444.53525 171.1274,438.83262 C 171.31209,433.13 174.7733,428.64943 178.95917,428.69432" transform="matrix(1.454489,0,0,1.5332998,-77.771646,-228.62243)" id="path4876" style="opacity:1;fill:url(#radialGradient6059);fill-opacity:1;fill-rule:evenodd;stroke:#000000;stroke-width:2.88071251;stroke-linecap:round;stroke-linejoin:round;stroke-miterlimit:4;stroke-dasharray:none;stroke-dashoffset:0;stroke-opacity:0.81402438"/>
        <path d="M 180.08302,428.81781 C 184.22016,429.68746 187.11059,434.86596 186.62329,440.53533 C 186.13599,446.2047 182.44574,450.3314 178.27326,449.87293 C 174.10079,449.41445 170.94271,444.53525 171.1274,438.83262 C 171.31209,433.13 174.7733,428.64943 178.95917,428.69432" transform="matrix(1.454489,0,0,1.5332998,67.79185,-186.7818)" id="path4886" style="opacity:1;fill:url(#radialGradient6061);fill-opacity:1;fill-rule:evenodd;stroke:#000000;stroke-width:2.88071251;stroke-linecap:round;stroke-linejoin:round;stroke-miterlimit:4;stroke-dasharray:none;stroke-dashoffset:0;stroke-opacity:0.81402438"/>
        <path d="M 180.08302,428.81781 C 184.22016,429.68746 187.11059,434.86596 186.62329,440.53533 C 186.13599,446.2047 182.44574,450.3314 178.27326,449.87293 C 174.10079,449.41445 170.94271,444.53525 171.1274,438.83262 C 171.31209,433.13 174.7733,428.64943 178.95917,428.69432" transform="matrix(1.454489,0,0,1.5332998,29.708586,-194.6813)" id="path4888" style="opacity:1;fill:url(#radialGradient6063);fill-opacity:1;fill-rule:evenodd;stroke:#000000;stroke-width:2.88071251;stroke-linecap:round;stroke-linejoin:round;stroke-miterlimit:4;stroke-dasharray:none;stroke-dashoffset:0;stroke-opacity:0.81402438"/>
        <path d="M 180.08302,428.81781 C 184.22016,429.68746 187.11059,434.86596 186.62329,440.53533 C 186.13599,446.2047 182.44574,450.3314 178.27326,449.87293 C 174.10079,449.41445 170.94271,444.53525 171.1274,438.83262 C 171.31209,433.13 174.7733,428.64943 178.95917,428.69432" transform="matrix(1.454489,0,0,1.5332998,-5.6467539,-207.40922)" id="path4890" style="opacity:1;fill:url(#radialGradient6065);fill-opacity:1;fill-rule:evenodd;stroke:#000000;stroke-width:2.88071251;stroke-linecap:round;stroke-linejoin:round;stroke-miterlimit:4;stroke-dasharray:none;stroke-dashoffset:0;stroke-opacity:0.81402438"/>
        <path d="M 180.08302,428.81781 C 184.22016,429.68746 187.11059,434.86596 186.62329,440.53533 C 186.13599,446.2047 182.44574,450.3314 178.27326,449.87293 C 174.10079,449.41445 170.94271,444.53525 171.1274,438.83262 C 171.31209,433.13 174.7733,428.64943 178.95917,428.69432" transform="matrix(1.454489,0,0,1.5332998,-42.416306,-218.72293)" id="path4892" style="opacity:1;fill:url(#radialGradient6067);fill-opacity:1;fill-rule:evenodd;stroke:#000000;stroke-width:2.88071251;stroke-linecap:round;stroke-linejoin:round;stroke-miterlimit:4;stroke-dasharray:none;stroke-dashoffset:0;stroke-opacity:0.81402438"/>
      </g>
      <g transform="matrix(1.1843823,-0.1942848,-0.4108265,0.9117135,187.31685,92.065112)" id="g3419">
        <path d="M 205.37107,500.66037 C 215.78285,505.39088 220.95235,514.23803 218.32478,522.82951 C 215.6972,531.42099 205.82894,537.93755 193.59693,539.15868 C 181.36493,540.3798 169.35932,536.04692 163.51332,528.30136 C 157.66733,520.55581 159.21886,511.0377 167.40112,504.45093" transform="matrix(-1.0142677,0.7780108,-0.6265005,-0.6919719,738.45817,766.62137)" id="path3413" style="opacity:1;fill:none;fill-opacity:1;stroke:#000000;stroke-width:0.83875984;stroke-linecap:butt;stroke-linejoin:miter;stroke-miterlimit:4;stroke-dasharray:3.35503929, 6.71007857;stroke-dashoffset:6.71007912;stroke-opacity:1"/>
        <path d="M 205.37107,500.66037 C 215.78285,505.39088 220.95235,514.23803 218.32478,522.82951 C 215.6972,531.42099 205.82894,537.93755 193.59693,539.15868 C 181.36493,540.3798 169.35932,536.04692 163.51332,528.30136 C 157.66733,520.55581 159.21886,511.0377 167.40112,504.45093" transform="matrix(-0.4713514,0.3603902,-0.2911479,-0.3205352,459.84647,654.46793)" id="path3417" style="opacity:1;fill:none;fill-opacity:1;stroke:#000000;stroke-width:1.80778956;stroke-linecap:butt;stroke-linejoin:miter;stroke-miterlimit:4;stroke-dasharray:7.23115869, 14.46231739;stroke-dashoffset:14.46231859;stroke-opacity:1"/>
      </g>
      <g transform="matrix(0.7487821,-0.1404846,0.1404846,0.7487821,20.990423,212.31752)" id="g3425">
        <path d="M 196.06584,497.88894 C 209.57552,500.08449 219.11748,508.67773 218.99891,518.54187 C 218.88034,528.40601 209.13321,536.88175 195.57273,538.91242 C 182.01224,540.94308 168.2942,535.9812 162.60289,526.98709 C 156.91157,517.99297 160.78131,507.39135 171.90339,501.50723" transform="matrix(0.7579845,0.6006869,0.4681976,-0.5342579,32.79356,763.27139)" id="path3415" style="opacity:1;fill:none;fill-opacity:1;stroke:#000000;stroke-width:1.44938874;stroke-linecap:butt;stroke-linejoin:miter;stroke-miterlimit:4;stroke-dasharray:5.79755454, 11.59510907;stroke-dashoffset:11.59511001;stroke-opacity:1"/>
        <path d="M 196.06584,497.88894 C 209.57552,500.08449 219.11748,508.67773 218.99891,518.54187 C 218.88034,528.40601 209.13321,536.88175 195.57273,538.91242 C 182.01224,540.94308 168.2942,535.9812 162.60289,526.98709 C 156.91157,517.99297 160.78131,507.39135 171.90339,501.50723" transform="matrix(1.6504795,1.3099649,1.0194807,-1.1650982,-420.20324,953.49604)" id="path3423" style="opacity:1;fill:none;fill-opacity:1;stroke:#000000;stroke-width:0.66512632;stroke-linecap:butt;stroke-linejoin:miter;stroke-miterlimit:4;stroke-dasharray:2.66050535, 5.32101071;stroke-dashoffset:5.32101116;stroke-opacity:1"/>
      </g>
    </g>
  </g>
</svg>